<?xml version="1.0" encoding="utf-8"?>
<!-- Generator: Adobe Illustrator 24.3.0, SVG Export Plug-In . SVG Version: 6.00 Build 0)  -->
<svg version="1.1" id="Layer_1" xmlns="http://www.w3.org/2000/svg" xmlns:xlink="http://www.w3.org/1999/xlink" x="0px" y="0px"
	 viewBox="0 0 300 300" enable-background="new 0 0 300 300" xml:space="preserve">
<g>
	<g>
		<g>
			<path fill="#FFDA88" d="M251.562,224.507c0,4.046-3.279,7.326-7.326,7.326H54.295c-4.045,0-7.324-3.28-7.324-7.326l0,0
				c0-4.043,3.279-7.323,7.324-7.323h189.941C248.283,217.184,251.562,220.464,251.562,224.507L251.562,224.507z"/>
		</g>
		<g>
			<path fill="#FFE2A9" d="M58.205,224.507c0-4.043,3.28-7.323,7.325-7.323H54.294c-4.045,0-7.324,3.28-7.324,7.323
				c0,4.046,3.279,7.326,7.324,7.326H65.53C61.485,231.833,58.205,228.553,58.205,224.507z"/>
		</g>
		<g>
			<polygon fill="#F4F4F4" points="237.426,259.112 61.106,259.112 55.044,231.833 243.488,231.833 			"/>
		</g>
		<g>
			<polygon fill="#F4F4F4" points="208.099,193.866 91.356,193.866 85.294,166.587 214.161,166.587 			"/>
		</g>
		<g>
			<polygon fill="#F9F9F9" points="55.044,231.833 61.106,259.112 74.194,259.112 68.132,231.833 			"/>
		</g>
		<g>
			<polygon fill="#F9F9F9" points="85.294,166.587 91.356,193.866 104.444,193.866 98.382,166.587 			"/>
		</g>
		<g>
			<path fill="#FFDA88" d="M222.236,159.262c0,4.046-3.279,7.326-7.324,7.326H84.546c-4.045,0-7.324-3.279-7.324-7.326l0,0
				c0-4.043,3.279-7.323,7.324-7.323h130.365C218.956,151.939,222.236,155.218,222.236,159.262L222.236,159.262z"/>
		</g>
		<g>
			<rect x="28.761" y="259.112" fill="#F4F4F4" width="242.479" height="12.127"/>
		</g>
		<g>
			<rect x="132.806" y="193.866" fill="#F4F4F4" width="33.845" height="23.318"/>
		</g>
		<g>
			<path fill="#FFDA88" d="M204.05,90.985c0,4.046-3.279,7.326-7.324,7.326h-93.994c-4.045,0-7.324-3.28-7.324-7.326l0,0
				c0-4.043,3.279-7.323,7.324-7.323h93.994C200.77,83.662,204.05,86.942,204.05,90.985L204.05,90.985z"/>
		</g>
		<g>
			<polygon fill="#F4F4F4" points="189.913,125.589 109.542,125.589 103.48,98.311 195.975,98.311 			"/>
		</g>
		<g>
			<polygon fill="#F9F9F9" points="103.48,98.311 109.542,125.589 122.63,125.589 116.568,98.311 			"/>
		</g>
		<g>
			<rect x="132.806" y="125.589" fill="#F4F4F4" width="33.845" height="26.349"/>
		</g>
		<g>
			<path fill="#FE6F80" d="M165.299,36.428c0-4.235-3.432-7.666-7.666-7.666c-4.115,0-7.461,3.241-7.652,7.311l-0.024-0.012
				l-0.012,0.003c-0.192-4.061-3.539-7.302-7.648-7.302c-4.234,0-7.666,3.431-7.666,7.666c0,1.886,0.682,3.608,1.805,4.946l0,0
				l13.529,13.086l13.528-13.086l-0.005-0.006C164.616,40.036,165.299,38.313,165.299,36.428z"/>
		</g>
		<g>
			<path fill="#FFA1AA" d="M143.003,41.374c-1.123-1.338-1.805-3.061-1.805-4.946c0-3.052,1.797-5.665,4.378-6.899
				c-0.997-0.476-2.099-0.766-3.278-0.766c-4.234,0-7.666,3.431-7.666,7.666c0,1.886,0.682,3.608,1.805,4.946l13.529,13.086
				l3.284-3.176L143.003,41.374z"/>
		</g>
		<g>
			<g>
				<path fill="#9AE8CE" d="M149.728,76.091c-2.511,0-4.546-2.036-4.546-4.546V66.24c0-2.51,2.035-4.546,4.546-4.546
					c2.512,0,4.546,2.036,4.546,4.546v5.304C154.274,74.054,152.239,76.091,149.728,76.091z"/>
			</g>
		</g>
		<g>
			<path fill="#AEF4DB" d="M148.702,71.544V66.24c0-1.886,1.148-3.505,2.785-4.191c-0.54-0.228-1.135-0.355-1.76-0.355
				c-2.511,0-4.546,2.036-4.546,4.546v5.304c0,2.51,2.035,4.546,4.546,4.546c0.625,0,1.22-0.127,1.76-0.355
				C149.851,75.049,148.702,73.43,148.702,71.544z"/>
		</g>
		<g>
			<g>
				<path fill="#9AE8CE" d="M58.093,194.044c-2.511,0-4.546-2.036-4.546-4.546v-49.191c0-12.799,10.413-23.209,23.212-23.209
					c12.799,0,23.212,10.41,23.212,23.209c0,2.51-2.035,4.547-4.546,4.547c-2.511,0-4.547-2.037-4.547-4.547
					c0-7.785-6.334-14.116-14.119-14.116c-7.785,0-14.119,6.331-14.119,14.116v49.191C62.639,192.007,60.604,194.044,58.093,194.044
					z"/>
			</g>
		</g>
		<g>
			<g>
				<path fill="#AEF4DB" d="M57.84,189.497v-49.191c0-12.074,9.27-22.013,21.065-23.099c-0.707-0.065-1.421-0.109-2.146-0.109
					c-12.799,0-23.212,10.41-23.212,23.209v49.191c0,2.51,2.035,4.546,4.546,4.546c0.782,0,1.505-0.216,2.146-0.562
					C58.817,192.712,57.84,191.226,57.84,189.497z"/>
			</g>
			<g>
				<path fill="#AEF4DB" d="M95.17,140.306c0-7.785-6.334-14.116-14.119-14.116c-0.735,0-1.441,0.109-2.147,0.216
					c6.763,1.045,11.973,6.849,11.973,13.9c0,2.51,2.035,4.547,4.547,4.547c0.782,0,1.505-0.216,2.146-0.562
					C96.147,143.524,95.17,142.035,95.17,140.306z"/>
			</g>
		</g>
		<g>
			<g>
				<path fill="#9AE8CE" d="M76.459,100.338c-2.511,0-4.546-2.036-4.546-4.546V69.617c0-11.126,9.054-20.181,20.184-20.181
					c11.128,0,20.181,9.054,20.181,20.181c0,2.51-2.035,4.546-4.547,4.546c-2.512,0-4.546-2.036-4.546-4.546
					c0-6.115-4.974-11.088-11.088-11.088c-6.115,0-11.091,4.973-11.091,11.088v26.175C81.006,98.302,78.971,100.338,76.459,100.338z
					"/>
			</g>
		</g>
		<g>
			<g>
				<path fill="#AEF4DB" d="M108.237,69.617c0-6.115-4.974-11.088-11.088-11.088c-0.872,0-1.713,0.127-2.526,0.317
					c4.896,1.152,8.562,5.529,8.562,10.771c0,2.51,2.035,4.546,4.546,4.546c0.935,0,1.804-0.284,2.526-0.766
					C109.039,72.58,108.237,71.192,108.237,69.617z"/>
			</g>
			<g>
				<path fill="#AEF4DB" d="M76.965,95.792V69.617c0-10.268,7.718-18.757,17.658-20.006c-0.83-0.104-1.67-0.175-2.526-0.175
					c-11.129,0-20.184,9.054-20.184,20.181v26.175c0,2.51,2.035,4.546,4.546,4.546c0.935,0,1.804-0.284,2.526-0.77
					C77.768,98.755,76.965,97.367,76.965,95.792z"/>
			</g>
		</g>
		<g>
			<g>
				<path fill="#9AE8CE" d="M222.487,100.338c-2.511,0-4.546-2.036-4.546-4.546V69.617c0-6.115-4.976-11.088-11.091-11.088
					c-6.113,0-11.088,4.973-11.088,11.088c0,2.51-2.035,4.546-4.546,4.546c-2.512,0-4.547-2.036-4.547-4.546
					c0-11.126,9.053-20.181,20.181-20.181c11.129,0,20.184,9.054,20.184,20.181v26.175
					C227.033,98.302,224.999,100.338,222.487,100.338z"/>
			</g>
		</g>
		<g>
			<g>
				<path fill="#AEF4DB" d="M190.683,69.617c0-10.448,7.986-19.068,18.174-20.08c-0.66-0.065-1.329-0.101-2.007-0.101
					c-11.126,0-20.181,9.054-20.181,20.181c0,2.51,2.036,4.546,4.547,4.546c0.725,0,1.4-0.183,2.007-0.485
					C191.725,72.936,190.683,71.402,190.683,69.617z"/>
			</g>
			<g>
				<path fill="#AEF4DB" d="M221.957,95.792V69.617c0-6.115-4.979-11.088-11.094-11.088c-0.687,0-1.353,0.083-2.007,0.204
					c5.159,0.947,9.087,5.455,9.087,10.884v26.175c0,2.51,2.033,4.546,4.546,4.546c0.722,0,1.4-0.184,2.007-0.486
					C222.996,99.11,221.957,97.58,221.957,95.792z"/>
			</g>
		</g>
		<g>
			<g>
				<path fill="#9AE8CE" d="M240.439,194.044c-2.51,0-4.546-2.036-4.546-4.546v-49.191c0-7.785-6.334-14.116-14.12-14.116
					c-7.785,0-14.119,6.331-14.119,14.116c0,2.51-2.035,4.547-4.546,4.547c-2.512,0-4.546-2.037-4.546-4.547
					c0-12.799,10.413-23.209,23.212-23.209c12.8,0,23.213,10.41,23.213,23.209v49.191
					C244.986,192.007,242.949,194.044,240.439,194.044z"/>
			</g>
		</g>
		<g>
			<g>
				<path fill="#AEF4DB" d="M203.107,140.306c0-12.032,9.202-21.948,20.939-23.093c-0.749-0.074-1.507-0.115-2.273-0.115
					c-12.799,0-23.212,10.41-23.212,23.209c0,2.51,2.036,4.547,4.546,4.547c0.832,0,1.604-0.24,2.273-0.63
					C204.028,143.435,203.107,141.984,203.107,140.306z"/>
			</g>
			<g>
				<path fill="#AEF4DB" d="M240.442,189.497v-49.191c0-7.785-6.334-14.116-14.123-14.116c-0.779,0-1.527,0.106-2.273,0.231
					c6.706,1.095,11.85,6.879,11.85,13.885v49.191c0,2.51,2.036,4.546,4.546,4.546c0.829,0,1.599-0.24,2.273-0.63
					C241.36,192.626,240.442,191.176,240.442,189.497z"/>
			</g>
		</g>
		<g>
			<g>
				<path fill="#9AE8CE" d="M58.093,210.072c-2.511,0-4.546-2.036-4.546-4.546v-3.143c0-2.51,2.035-4.546,4.546-4.546
					c2.512,0,4.547,2.036,4.547,4.546v3.143C62.639,208.035,60.604,210.072,58.093,210.072z"/>
			</g>
		</g>
		<g>
			<g>
				<path fill="#9AE8CE" d="M76.459,114.519c-2.511,0-4.546-2.036-4.546-4.546v-1.921c0-2.51,2.035-4.546,4.546-4.546
					c2.512,0,4.547,2.036,4.547,4.546v1.921C81.006,112.483,78.971,114.519,76.459,114.519z"/>
			</g>
		</g>
		<g>
			<path fill="#AEF4DB" d="M76.459,109.973v-1.921c0-1.678,0.921-3.129,2.273-3.916c-0.67-0.391-1.441-0.63-2.273-0.63
				c-2.511,0-4.546,2.036-4.546,4.546v1.921c0,2.51,2.035,4.546,4.546,4.546c0.832,0,1.603-0.24,2.273-0.63
				C77.38,113.102,76.459,111.651,76.459,109.973z"/>
		</g>
		<g>
			<g>
				<path fill="#9AE8CE" d="M222.487,114.519c-2.511,0-4.546-2.036-4.546-4.546v-1.921c0-2.51,2.035-4.546,4.546-4.546
					c2.512,0,4.546,2.036,4.546,4.546v1.921C227.033,112.483,224.999,114.519,222.487,114.519z"/>
			</g>
		</g>
		<g>
			<path fill="#AEF4DB" d="M222.487,109.973v-1.921c0-1.678,0.921-3.129,2.273-3.916c-0.671-0.391-1.442-0.63-2.273-0.63
				c-2.511,0-4.546,2.036-4.546,4.546v1.921c0,2.51,2.035,4.546,4.546,4.546c0.832,0,1.603-0.24,2.273-0.63
				C223.408,113.102,222.487,111.651,222.487,109.973z"/>
		</g>
		<g>
			<g>
				<path fill="#9AE8CE" d="M240.439,210.072c-2.51,0-4.546-2.036-4.546-4.546v-3.143c0-2.51,2.036-4.546,4.546-4.546
					c2.51,0,4.546,2.036,4.546,4.546v3.143C244.986,208.035,242.949,210.072,240.439,210.072z"/>
			</g>
		</g>
		<g>
			<path fill="#AEF4DB" d="M240.439,205.525v-3.143c0-1.678,0.921-3.128,2.273-3.916c-0.672-0.391-1.442-0.63-2.273-0.63
				c-2.51,0-4.546,2.036-4.546,4.546v3.143c0,2.51,2.036,4.546,4.546,4.546c0.832,0,1.601-0.24,2.273-0.63
				C241.36,208.654,240.439,207.204,240.439,205.525z"/>
		</g>
		<g>
			<path fill="#AEF4DB" d="M58.093,205.525v-3.143c0-1.678,0.921-3.128,2.273-3.916c-0.672-0.391-1.441-0.63-2.273-0.63
				c-2.51,0-4.546,2.036-4.546,4.546v3.143c0,2.51,2.036,4.546,4.546,4.546c0.832,0,1.602-0.24,2.273-0.63
				C59.014,208.654,58.093,207.204,58.093,205.525z"/>
		</g>
		<g>
			<g>
				<path fill="#9AE8CE" d="M127.425,74.324c-2.341,0-4.328-1.797-4.526-4.168c-0.018-0.189-1.382-14.107-13.002-23.638
					c-1.942-1.592-2.224-4.458-0.632-6.399c1.591-1.942,4.456-2.226,6.398-0.633c14.712,12.071,16.24,29.206,16.297,29.931
					c0.2,2.501-1.666,4.695-4.169,4.893C127.669,74.318,127.546,74.324,127.425,74.324z"/>
			</g>
		</g>
		<g>
			<path fill="#AEF4DB" d="M126.435,70.156c-0.018-0.189-1.382-14.107-13.002-23.638c-1.942-1.592-2.224-4.458-0.632-6.399
				c0.482-0.589,1.091-1.006,1.748-1.285c-1.81-0.766-3.975-0.311-5.284,1.285c-1.592,1.942-1.31,4.807,0.632,6.399
				c11.619,9.531,12.984,23.449,13.002,23.638c0.198,2.371,2.184,4.168,4.526,4.168c0.121,0,0.244-0.006,0.367-0.015
				c0.5-0.038,0.967-0.178,1.405-0.364C127.695,73.305,126.579,71.893,126.435,70.156z"/>
		</g>
		<g>
			<g>
				<path fill="#9AE8CE" d="M99.644,38.71c-0.584,0-1.177-0.112-1.748-0.349c-0.17-0.068-3.679-1.379-10.034-0.897
					c-2.505,0.169-4.686-1.69-4.874-4.194c-0.188-2.504,1.689-4.686,4.193-4.875c8.738-0.633,13.725,1.361,14.264,1.592
					c2.306,0.995,3.37,3.67,2.375,5.976C103.081,37.683,101.404,38.71,99.644,38.71z"/>
			</g>
		</g>
		<g>
			<path fill="#AEF4DB" d="M87.182,32.177c8.738-0.634,13.725,1.361,14.264,1.592c1.073,0.462,1.863,1.296,2.316,2.282
				c0.016-0.032,0.045-0.059,0.06-0.095c0.994-2.306-0.07-4.982-2.375-5.976c-0.539-0.231-5.526-2.226-14.264-1.593
				c-2.504,0.189-4.381,2.371-4.193,4.875c0.042,0.56,0.197,1.08,0.42,1.56C84.076,33.373,85.474,32.307,87.182,32.177z"/>
		</g>
		<g>
			<g>
				<path fill="#9AE8CE" d="M169.965,74.324c-0.121,0-0.243-0.006-0.367-0.015c-2.503-0.198-4.369-2.392-4.169-4.893
					c0.058-0.725,1.585-17.86,16.298-29.931c1.942-1.592,4.805-1.308,6.398,0.633c1.593,1.942,1.31,4.807-0.632,6.399
					c-11.755,9.644-12.988,23.484-13,23.62C174.303,72.518,172.312,74.324,169.965,74.324z"/>
			</g>
		</g>
		<g>
			<path fill="#AEF4DB" d="M169.718,69.416c0.058-0.725,1.585-17.86,16.297-29.931c0.234-0.192,0.483-0.352,0.739-0.491
				c-1.573-0.84-3.562-0.71-5.028,0.491c-14.712,12.071-16.24,29.206-16.298,29.931c-0.2,2.501,1.667,4.695,4.169,4.893
				c0.124,0.009,0.246,0.015,0.367,0.015c0.759,0,1.447-0.243,2.084-0.577C170.539,72.906,169.571,71.248,169.718,69.416z"/>
		</g>
		<g>
			<g>
				<path fill="#9AE8CE" d="M197.791,38.689c-1.789,0-3.494-1.05-4.218-2.797c-0.952-2.297,0.087-4.92,2.371-5.905
					c0.54-0.231,5.527-2.247,14.264-1.592c2.504,0.189,4.381,2.371,4.193,4.875c-0.187,2.504-2.359,4.404-4.874,4.194
					c-6.488-0.5-10.007,0.885-10.041,0.9C198.932,38.583,198.356,38.689,197.791,38.689z"/>
			</g>
		</g>
		<g>
			<path fill="#AEF4DB" d="M193.755,36.123c0.462-0.882,1.199-1.625,2.189-2.051c0.54-0.231,5.527-2.247,14.264-1.593
				c1.641,0.124,3,1.113,3.697,2.478c0.274-0.53,0.448-1.122,0.496-1.755c0.188-2.504-1.689-4.686-4.193-4.875
				c-8.737-0.654-13.724,1.361-14.264,1.592c-2.284,0.986-3.323,3.608-2.371,5.905C193.619,35.936,193.702,36.019,193.755,36.123z"
				/>
		</g>
		<g>
			<rect x="28.761" y="259.112" fill="#F9F9F9" width="14.024" height="12.127"/>
		</g>
		<g>
			<rect x="132.806" y="193.866" fill="#F9F9F9" width="10.446" height="23.318"/>
		</g>
		<g>
			<rect x="132.806" y="125.589" fill="#F9F9F9" width="10.446" height="26.349"/>
		</g>
		<g>
			<path fill="#FFE2A9" d="M88.457,159.262c0-4.043,3.28-7.323,7.324-7.323H84.546c-4.045,0-7.324,3.28-7.324,7.323
				c0,4.046,3.279,7.326,7.324,7.326h11.236C91.737,166.587,88.457,163.308,88.457,159.262z"/>
		</g>
		<g>
			<path fill="#FFE2A9" d="M106.643,90.985c0-4.043,3.279-7.323,7.324-7.323h-11.236c-4.045,0-7.324,3.28-7.324,7.323
				c0,4.046,3.279,7.326,7.324,7.326h11.236C109.923,98.311,106.643,95.031,106.643,90.985z"/>
		</g>
	</g>
	<g>
		<g>
			<path fill="#161616" d="M244.237,236.38H54.295c-6.546,0-11.871-5.325-11.871-11.872c0-6.544,5.325-11.869,11.871-11.869h189.941
				c6.546,0,11.871,5.325,11.871,11.869C256.107,231.055,250.783,236.38,244.237,236.38z M54.295,221.731
				c-1.532,0-2.778,1.246-2.778,2.776c0,1.533,1.246,2.779,2.778,2.779h189.941c1.532,0,2.778-1.246,2.778-2.779
				c0-1.53-1.246-2.776-2.778-2.776H54.295z"/>
		</g>
		<g>
			<path fill="#161616" d="M237.424,263.658H61.106c-2.131,0-3.977-1.48-4.438-3.561l-6.062-27.279
				c-0.299-1.347,0.03-2.756,0.892-3.83c0.863-1.077,2.167-1.702,3.546-1.702h188.442c1.379,0,2.683,0.624,3.546,1.702
				c0.863,1.074,1.191,2.483,0.892,3.83l-6.062,27.279C241.4,262.178,239.555,263.658,237.424,263.658z M64.753,254.565h169.025
				l4.04-18.186H60.712L64.753,254.565z"/>
		</g>
		<g>
			<path fill="#161616" d="M214.911,171.134H84.546c-6.546,0-11.871-5.325-11.871-11.872c0-6.544,5.325-11.869,11.871-11.869
				h130.366c6.546,0,11.871,5.325,11.871,11.869C226.782,165.809,221.457,171.134,214.911,171.134z M84.546,156.485
				c-1.532,0-2.778,1.246-2.778,2.776c0,1.533,1.246,2.779,2.778,2.779h130.366c1.532,0,2.778-1.246,2.778-2.779
				c0-1.53-1.246-2.776-2.778-2.776H84.546z"/>
		</g>
		<g>
			<path fill="#161616" d="M208.099,198.413h-90.295c-2.511,0-4.546-2.036-4.546-4.546c0-2.51,2.035-4.546,4.546-4.546h86.649
				l4.04-18.186H90.963l4.04,18.186h2.655c2.511,0,4.546,2.036,4.546,4.546c0,2.51-2.035,4.546-4.546,4.546h-6.302
				c-2.131,0-3.977-1.48-4.438-3.561l-6.062-27.279c-0.299-1.347,0.03-2.756,0.893-3.83c0.863-1.077,2.167-1.702,3.546-1.702
				h128.866c1.379,0,2.683,0.625,3.546,1.702c0.863,1.074,1.191,2.483,0.893,3.83l-6.062,27.279
				C212.076,196.933,210.23,198.413,208.099,198.413z"/>
		</g>
		<g>
			<path fill="#161616" d="M271.239,275.785H232.56c-2.512,0-4.546-2.036-4.546-4.546c0-2.51,2.035-4.546,4.546-4.546h34.132v-3.034
				H33.308v3.034h179.107c2.511,0,4.546,2.036,4.546,4.546c0,2.51-2.035,4.546-4.546,4.546H28.761c-2.511,0-4.546-2.036-4.546-4.546
				v-12.127c0-2.51,2.035-4.546,4.546-4.546h242.477c2.512,0,4.546,2.036,4.546,4.546v12.127
				C275.785,273.749,273.75,275.785,271.239,275.785z"/>
		</g>
		<g>
			<path fill="#161616" d="M166.651,221.731h-33.845c-2.512,0-4.546-2.036-4.546-4.546v-23.318c0-2.51,2.035-4.546,4.546-4.546
				h33.845c2.511,0,4.546,2.036,4.546,4.546v23.318C171.197,219.694,169.163,221.731,166.651,221.731z M137.352,212.638h24.752
				v-14.225h-24.752V212.638z"/>
		</g>
		<g>
			<path fill="#161616" d="M196.725,102.857h-93.994c-6.546,0-11.871-5.325-11.871-11.872c0-6.544,5.325-11.869,11.871-11.869
				h93.994c6.546,0,11.871,5.325,11.871,11.869C208.596,97.532,203.271,102.857,196.725,102.857z M102.731,88.209
				c-1.532,0-2.778,1.246-2.778,2.776c0,1.533,1.246,2.779,2.778,2.779h93.994c1.532,0,2.778-1.246,2.778-2.779
				c0-1.53-1.246-2.776-2.778-2.776H102.731z"/>
		</g>
		<g>
			<path fill="#161616" d="M189.913,130.136h-80.371c-2.131,0-3.977-1.48-4.438-3.561l-6.062-27.279
				c-0.299-1.347,0.03-2.756,0.892-3.83c0.863-1.077,2.167-1.702,3.546-1.702h92.495c1.379,0,2.683,0.625,3.546,1.702
				c0.863,1.074,1.191,2.483,0.892,3.83l-6.062,27.279C193.89,128.656,192.044,130.136,189.913,130.136z M113.189,121.043h73.078
				l4.04-18.186h-81.158L113.189,121.043z"/>
		</g>
		<g>
			<path fill="#161616" d="M166.651,156.485h-33.845c-2.512,0-4.546-2.036-4.546-4.546V125.59c0-2.51,2.035-4.546,4.546-4.546
				h33.845c2.511,0,4.546,2.036,4.546,4.546v26.349C171.197,154.449,169.163,156.485,166.651,156.485z M137.352,147.392h24.752
				v-17.256h-24.752V147.392z"/>
		</g>
		<g>
			<path fill="#161616" d="M149.965,59.006c-1.14,0-2.279-0.426-3.161-1.279l-13.528-13.086c-0.112-0.11-0.219-0.225-0.321-0.343
				c-1.85-2.205-2.87-4.999-2.87-7.87c0-6.734,5.479-12.213,12.213-12.213c2.901,0,5.569,1.009,7.668,2.702
				c2.097-1.693,4.767-2.702,7.668-2.702c6.734,0,12.213,5.479,12.213,12.213c0,2.773-0.949,5.467-2.679,7.625
				c-0.151,0.207-0.323,0.406-0.512,0.589l-13.528,13.086C152.244,58.58,151.104,59.006,149.965,59.006z M139.803,38.304
				l10.161,9.83l10.135-9.803c0.314-0.403,0.653-1.039,0.653-1.903c0-1.72-1.4-3.12-3.12-3.12c-1.665,0-3.031,1.308-3.109,2.978
				c-0.072,1.536-0.916,2.93-2.244,3.709c-1.197,0.699-2.643,0.814-3.926,0.323c-0.394-0.148-0.77-0.349-1.114-0.607
				c-1.092-0.811-1.77-2.072-1.835-3.431c-0.078-1.667-1.443-2.972-3.106-2.972c-1.72,0-3.12,1.4-3.12,3.12
				C139.177,37.265,139.495,37.893,139.803,38.304z"/>
		</g>
		<g>
			<path fill="#161616" d="M149.728,76.091c-2.512,0-4.546-2.036-4.546-4.547V66.24c0-2.51,2.035-4.546,4.546-4.546
				c2.511,0,4.546,2.036,4.546,4.546v5.304C154.274,74.054,152.239,76.091,149.728,76.091z"/>
		</g>
		<g>
			<path fill="#161616" d="M58.093,194.044c-2.511,0-4.546-2.036-4.546-4.546v-49.191c0-12.799,10.413-23.209,23.212-23.209
				s23.212,10.41,23.212,23.209c0,2.51-2.035,4.546-4.547,4.546s-4.546-2.036-4.546-4.546c0-7.785-6.334-14.116-14.119-14.116
				s-14.119,6.331-14.119,14.116v49.191C62.639,192.007,60.604,194.044,58.093,194.044z"/>
		</g>
		<g>
			<path fill="#161616" d="M76.459,100.338c-2.512,0-4.547-2.036-4.547-4.547V69.617c0-11.126,9.054-20.181,20.184-20.181
				c11.128,0,20.181,9.055,20.181,20.181c0,2.51-2.035,4.547-4.546,4.547c-2.512,0-4.547-2.037-4.547-4.547
				c0-6.115-4.974-11.088-11.088-11.088c-6.115,0-11.091,4.973-11.091,11.088v26.175C81.006,98.302,78.971,100.338,76.459,100.338z"
				/>
		</g>
		<g>
			<path fill="#161616" d="M222.487,100.338c-2.512,0-4.546-2.036-4.546-4.547V69.617c0-6.115-4.976-11.088-11.091-11.088
				c-6.114,0-11.088,4.973-11.088,11.088c0,2.51-2.035,4.547-4.547,4.547s-4.546-2.037-4.546-4.547
				c0-11.126,9.053-20.181,20.181-20.181c11.129,0,20.184,9.055,20.184,20.181v26.175
				C227.034,98.302,224.999,100.338,222.487,100.338z"/>
		</g>
		<g>
			<path fill="#161616" d="M240.438,194.044c-2.511,0-4.546-2.036-4.546-4.546v-49.191c0-7.785-6.334-14.116-14.119-14.116
				c-7.785,0-14.119,6.331-14.119,14.116c0,2.51-2.035,4.546-4.547,4.546c-2.511,0-4.546-2.036-4.546-4.546
				c0-12.799,10.413-23.209,23.212-23.209c12.799,0,23.212,10.41,23.212,23.209v49.191
				C244.984,192.007,242.949,194.044,240.438,194.044z"/>
		</g>
		<g>
			<path fill="#161616" d="M58.093,210.072c-2.511,0-4.546-2.036-4.546-4.546v-3.143c0-2.51,2.035-4.546,4.546-4.546
				c2.512,0,4.547,2.036,4.547,4.546v3.143C62.639,208.035,60.604,210.072,58.093,210.072z"/>
		</g>
		<g>
			<path fill="#161616" d="M76.459,114.519c-2.512,0-4.547-2.036-4.547-4.547v-1.921c0-2.51,2.035-4.547,4.547-4.547
				c2.511,0,4.546,2.036,4.546,4.547v1.921C81.006,112.483,78.971,114.519,76.459,114.519z"/>
		</g>
		<g>
			<path fill="#161616" d="M222.487,114.519c-2.512,0-4.546-2.036-4.546-4.547v-1.921c0-2.51,2.035-4.547,4.546-4.547
				c2.511,0,4.546,2.036,4.546,4.547v1.921C227.034,112.483,224.999,114.519,222.487,114.519z"/>
		</g>
		<g>
			<path fill="#161616" d="M240.438,210.072c-2.511,0-4.546-2.036-4.546-4.546v-3.143c0-2.51,2.035-4.546,4.546-4.546
				c2.512,0,4.546,2.036,4.546,4.546v3.143C244.984,208.035,242.949,210.072,240.438,210.072z"/>
		</g>
		<g>
			<path fill="#161616" d="M127.425,74.324c-2.341,0-4.327-1.797-4.526-4.168c-0.018-0.189-1.382-14.107-13.001-23.638
				c-1.942-1.593-2.224-4.458-0.632-6.399s4.458-2.226,6.398-0.633c14.712,12.071,16.24,29.206,16.297,29.931
				c0.2,2.501-1.666,4.694-4.169,4.893C127.669,74.318,127.546,74.324,127.425,74.324z"/>
		</g>
		<g>
			<path fill="#161616" d="M99.644,38.71c-0.585,0-1.177-0.112-1.748-0.349c-0.17-0.068-3.687-1.382-10.034-0.897
				c-2.517,0.169-4.687-1.69-4.874-4.194c-0.188-2.504,1.689-4.686,4.193-4.875c8.742-0.633,13.724,1.362,14.264,1.593
				c2.306,0.994,3.37,3.67,2.375,5.976C103.081,37.683,101.404,38.71,99.644,38.71z"/>
		</g>
		<g>
			<path fill="#161616" d="M169.965,74.324c-0.121,0-0.243-0.006-0.367-0.015c-2.503-0.198-4.369-2.392-4.169-4.893
				c0.058-0.725,1.585-17.86,16.297-29.931c1.94-1.592,4.807-1.308,6.398,0.633c1.592,1.942,1.31,4.807-0.632,6.399
				c-11.755,9.643-12.988,23.484-13,23.62C174.303,72.518,172.312,74.324,169.965,74.324z"/>
		</g>
		<g>
			<path fill="#161616" d="M197.791,38.689c-1.789,0-3.494-1.051-4.218-2.797c-0.952-2.297,0.087-4.919,2.371-5.905
				c0.539-0.231,5.517-2.25,14.264-1.593c2.504,0.19,4.381,2.371,4.193,4.875c-0.187,2.504-2.358,4.398-4.874,4.194
				c-6.49-0.5-10.009,0.885-10.042,0.9C198.932,38.583,198.356,38.689,197.791,38.689z"/>
		</g>
	</g>
</g>
</svg>
